<svg width="34" height="32" viewBox="0 0 34 32" fill="none" xmlns="http://www.w3.org/2000/svg">
<path d="M22.207 5.82383V11.0721L23.5806 10.5351V5.01568C23.5806 4.73883 23.4102 4.49516 23.1493 4.39565L12.0544 0.0499174C11.9807 0.0223319 11.9069 0.00558318 11.8218 0H11.816H11.7649H11.7591C11.6797 0.00558284 11.6002 0.0167487 11.5265 0.0499174L0.431577 4.39565C0.170681 4.50074 0.000336645 4.74441 0.000336645 5.01568L0 31.3241C0 31.551 0.113449 31.756 0.306348 31.8778L8.12658 31.9885H11.7983C12.173 31.9829 12.4794 31.6896 12.4794 31.3185V2.42489C12.4794 2.25313 12.5645 2.09288 12.712 1.99862C12.8594 1.90437 13.0469 1.88237 13.2112 1.94871L21.8715 5.34241C22.0759 5.41992 22.2065 5.61368 22.2065 5.82419L22.207 5.82383ZM33.6932 13.0488L27.0364 10.4468C26.9852 10.4301 26.9344 10.4137 26.8775 10.4137H26.8321C26.7752 10.4137 26.7186 10.4304 26.6674 10.4468L20.0107 13.0488C19.8292 13.1207 19.7043 13.2924 19.7043 13.4862V31.5178C19.7043 31.7835 19.9255 31.994 20.1924 31.994H26.855C27.1216 31.9884 27.3374 31.7782 27.3374 31.5178L27.3371 12.3462C27.3371 12.1744 27.4223 12.0142 27.5697 11.9199C27.6606 11.8592 27.7626 11.8312 27.8703 11.8312C27.9383 11.8312 28.0067 11.848 28.069 11.87L32.6884 13.6805C32.8928 13.758 33.0234 13.9461 33.0234 14.1622V31.5238C33.0234 31.7895 33.2446 32 33.5115 32C33.7839 32 33.9997 31.7842 33.9997 31.5238L34 13.4863C34 13.2925 33.8808 13.1211 33.6933 13.0492L33.6932 13.0488Z" fill="white"/>
</svg>
